<?xml version="1.0" standalone="no"?>
<!DOCTYPE svg PUBLIC "-//W3C//DTD SVG 20010904//EN"
 "http://www.w3.org/TR/2001/REC-SVG-20010904/DTD/svg10.dtd">
<svg version="1.0" xmlns="http://www.w3.org/2000/svg"
 width="682.000000pt" height="682.000000pt" viewBox="0 0 682.000000 682.000000"
 preserveAspectRatio="xMidYMid meet">
<metadata>
Created by potrace 1.11, written by Peter Selinger 2001-2013
</metadata>
<g transform="translate(0.000000,682.000000) scale(0.100000,-0.100000)"
fill="#000000" stroke="none">
<path d="M2945 6809 c-633 -44 -1109 -182 -1601 -464 -117 -68 -294 -182 -294
-190 0 -15 60 -107 128 -197 l73 -98 -82 -92 c-322 -365 -573 -820 -715 -1299
-45 -154 -108 -457 -125 -609 -17 -148 -17 -628 -1 -780 47 -424 180 -877 367
-1250 441 -880 1220 -1490 2122 -1664 228 -43 328 -51 663 -50 867 3 1416 133
2010 474 103 60 283 171 299 186 6 5 -102 166 -160 240 l-48 61 25 24 c40 37
170 193 247 297 353 476 588 1083 653 1686 18 169 21 549 5 726 -55 604 -291
1256 -626 1724 -120 169 -193 254 -350 412 -184 185 -272 257 -478 395 -347
231 -743 384 -1163 450 -119 18 -189 22 -479 24 -187 2 -398 -1 -470 -6z m765
-889 c581 -72 1113 -384 1474 -864 276 -367 463 -853 507 -1319 11 -127 7
-507 -7 -624 l-7 -53 -1728 0 c-1570 0 -1729 -1 -1729 -16 0 -33 54 -173 108
-277 148 -293 405 -527 706 -647 197 -78 463 -111 733 -91 225 17 376 55 518
129 l74 39 69 -27 c147 -57 298 -164 446 -314 131 -133 301 -355 285 -371 -24
-22 -246 -152 -359 -209 -323 -164 -613 -236 -1065 -267 -492 -34 -862 32
-1250 220 -616 300 -1072 860 -1260 1546 -88 322 -112 650 -73 1003 l11 102
1729 0 1728 0 -6 28 c-14 59 -79 222 -122 306 -133 259 -382 496 -632 601
-332 140 -716 116 -1022 -66 -178 -105 -380 -318 -472 -496 l-17 -33 -554 0
-554 0 40 118 c81 238 237 519 407 732 355 448 913 769 1470 845 119 16 437
19 552 5z"/>
</g>
</svg>
